<svg width="40" height="40" viewBox="0 0 40 40" fill="none" xmlns="http://www.w3.org/2000/svg">
<path d="M20 36.6667C15.5797 36.6667 11.3405 34.9108 8.21488 31.7852C5.08928 28.6595 3.33333 24.4203 3.33333 20C3.33333 15.5798 5.08928 11.3405 8.21488 8.21493C11.3405 5.08932 15.5797 3.33337 20 3.33337C24.4203 3.33337 28.6595 4.91373 31.7851 7.72677C34.9107 10.5398 36.6667 14.3551 36.6667 18.3334C36.6667 20.5435 35.7887 22.6631 34.2259 24.2259C32.6631 25.7887 30.5435 26.6667 28.3333 26.6667H24.5833C24.0417 26.6667 23.5107 26.8175 23.0499 27.1023C22.5892 27.3871 22.2168 27.7945 21.9746 28.279C21.7323 28.7635 21.6298 29.3058 21.6784 29.8453C21.7271 30.3848 21.925 30.9 22.25 31.3334L22.75 32C23.075 32.4334 23.2729 32.9486 23.3215 33.4881C23.3702 34.0276 23.2676 34.5699 23.0254 35.0544C22.7832 35.5389 22.4108 35.9463 21.95 36.2311C21.4893 36.5159 20.9583 36.6667 20.4167 36.6667H20Z" stroke="#155DFC" stroke-width="3.33333" stroke-linecap="round" stroke-linejoin="round"/>
<path d="M22.5 11.6667C22.9602 11.6667 23.3333 11.2936 23.3333 10.8333C23.3333 10.3731 22.9602 10 22.5 10C22.0398 10 21.6667 10.3731 21.6667 10.8333C21.6667 11.2936 22.0398 11.6667 22.5 11.6667Z" fill="#155DFC" stroke="#155DFC" stroke-width="3.33333" stroke-linecap="round" stroke-linejoin="round"/>
<path d="M29.1667 18.3333C29.6269 18.3333 30 17.9602 30 17.5C30 17.0397 29.6269 16.6666 29.1667 16.6666C28.7064 16.6666 28.3333 17.0397 28.3333 17.5C28.3333 17.9602 28.7064 18.3333 29.1667 18.3333Z" fill="#155DFC" stroke="#155DFC" stroke-width="3.33333" stroke-linecap="round" stroke-linejoin="round"/>
<path d="M10.8333 21.6667C11.2936 21.6667 11.6667 21.2936 11.6667 20.8333C11.6667 20.3731 11.2936 20 10.8333 20C10.3731 20 10 20.3731 10 20.8333C10 21.2936 10.3731 21.6667 10.8333 21.6667Z" fill="#155DFC" stroke="#155DFC" stroke-width="3.33333" stroke-linecap="round" stroke-linejoin="round"/>
<path d="M14.1667 13.3333C14.6269 13.3333 15 12.9602 15 12.5C15 12.0397 14.6269 11.6666 14.1667 11.6666C13.7064 11.6666 13.3333 12.0397 13.3333 12.5C13.3333 12.9602 13.7064 13.3333 14.1667 13.3333Z" fill="#155DFC" stroke="#155DFC" stroke-width="3.33333" stroke-linecap="round" stroke-linejoin="round"/>
</svg>
