<svg width="40" height="40" viewBox="0 0 40 40" fill="none" xmlns="http://www.w3.org/2000/svg">
<path d="M23.3283 6.66663C23.9297 6.66662 24.5198 6.82927 25.0362 7.13735C25.5526 7.44544 25.976 7.88747 26.2617 8.41663L27.0717 9.91663C27.3573 10.4458 27.7808 10.8878 28.2972 11.1959C28.8136 11.504 29.4037 11.6666 30.005 11.6666H33.3333C34.2174 11.6666 35.0652 12.0178 35.6904 12.6429C36.3155 13.2681 36.6667 14.1159 36.6667 15V30C36.6667 30.884 36.3155 31.7319 35.6904 32.357C35.0652 32.9821 34.2174 33.3333 33.3333 33.3333H6.66668C5.78262 33.3333 4.93478 32.9821 4.30965 32.357C3.68453 31.7319 3.33334 30.884 3.33334 30V15C3.33334 14.1159 3.68453 13.2681 4.30965 12.6429C4.93478 12.0178 5.78262 11.6666 6.66668 11.6666H9.99501C10.5957 11.6667 11.1853 11.5044 11.7013 11.1969C12.2174 10.8894 12.6407 10.4482 12.9267 9.91996L13.7417 8.41329C14.0276 7.88501 14.451 7.44381 14.967 7.13635C15.4831 6.82889 16.0726 6.66659 16.6733 6.66663H23.3283Z" stroke="#155DFC" stroke-width="3.33333" stroke-linecap="round" stroke-linejoin="round"/>
<path d="M20 26.6666C22.7614 26.6666 25 24.428 25 21.6666C25 18.9052 22.7614 16.6666 20 16.6666C17.2386 16.6666 15 18.9052 15 21.6666C15 24.428 17.2386 26.6666 20 26.6666Z" stroke="#155DFC" stroke-width="3.33333" stroke-linecap="round" stroke-linejoin="round"/>
</svg>
