<svg width="115" height="48" viewBox="0 0 115 48" fill="none" xmlns="http://www.w3.org/2000/svg">
<path d="M17.5269 7.3216C17.1241 6.47805 17.1104 5.83012 17.8239 5.24598C18.0142 5.09013 18.014 4.56578 17.9374 4.25007C17.6407 3.02426 18.6096 2.49466 19.2893 1.89276C19.875 1.37417 20.6565 1.06371 21.3732 0.704475C22.6095 0.0853157 23.8709 -0.35973 25.2275 0.403275C25.3748 0.48608 25.5775 0.522606 25.7476 0.506844C27.2333 0.367752 28.609 0.930374 29.7407 1.66436C31.1424 2.57321 32.2634 3.91185 33.4972 5.07362C33.6236 5.19269 33.6571 5.44086 33.7949 5.51165C34.9267 6.09454 35.2334 7.2418 35.6181 8.27323C36.3123 10.1342 36.5392 12.0062 35.6409 13.9417C35.1931 14.9066 34.9715 15.9178 33.7837 16.265C33.6508 16.304 33.5337 16.5927 33.512 16.7779C33.4067 17.6692 32.8708 18.2106 32.1363 18.6488C31.8969 18.7917 31.5955 19.0964 31.594 19.3288C31.5732 22.5797 30.483 25.5342 29.1546 28.4358C28.1737 30.5777 27.127 32.7006 26.321 34.9084C25.4021 37.4245 25.9375 39.9912 26.5269 42.5104C26.9481 44.3111 27.4109 46.102 27.8805 48C27.6426 47.9537 27.4159 47.9467 27.2203 47.8657C26.0836 47.3951 24.903 46.9986 23.8336 46.4055C21.899 45.3323 19.8492 45.1496 17.722 45.3738C14.3791 45.7263 11.2162 46.7437 8.01736 47.9155C8.35459 47.6293 8.69156 47.3423 9.02953 47.0566C9.39603 46.7467 9.77102 46.4465 10.1288 46.1268C11.2995 45.0811 11.7196 42.8441 10.9563 41.496C10.8447 41.2993 10.486 41.1725 10.2253 41.1392C8.70857 40.9456 7.18131 40.8283 5.66856 40.6089C4.34318 40.4168 3.73578 39.2187 4.05699 37.4605C2.83143 37.0815 1.66291 36.5785 2.43117 34.9484C1.14307 33.8809 1.14757 33.8482 1.80825 32.5015C1.89156 32.3317 1.8055 32.0022 1.68092 31.8306C1.55284 31.6545 1.2774 31.5877 1.07352 31.4618C-0.137281 30.7151 -0.326908 29.9191 0.520152 28.8043C1.09778 28.0438 1.74246 27.3301 2.39564 26.6309C3.12162 25.8536 3.5444 24.9973 3.14064 23.9469C2.29233 21.7379 2.64156 19.5997 3.47661 17.4921C4.39972 15.1625 5.957 13.3573 8.09817 12.0335C9.55113 11.1354 10.9611 10.1685 12.414 9.27064C13.9515 8.32026 15.5581 7.51798 17.5269 7.3216Z" fill="#231F20"/>
<path d="M68.107 28.6523H69.6846V38.1979C68.8658 38.4668 68.3184 38.2077 67.7866 37.5134C66.2816 35.5494 64.6935 33.6489 62.9666 31.5107V38.2232H61.5012V28.7221C62.1696 28.4587 62.6572 28.6148 63.1127 29.2004C64.7118 31.2553 66.3501 33.2801 68.107 35.4839V28.6523Z" fill="#231F20"/>
<path d="M107.097 33.4054C107.094 35.2236 108.029 36.605 109.448 36.8775C111.076 37.1907 112.414 36.4217 112.985 34.8449C113.61 33.1175 112.972 31.0766 111.58 30.3544C109.369 29.2066 107.101 30.7499 107.097 33.4054ZM105.483 33.4407C105.488 30.7712 107.569 28.5632 110.085 28.5577C112.718 28.5517 114.789 30.7437 114.778 33.5265C114.767 36.2428 112.668 38.384 110.045 38.3545C107.512 38.3262 105.478 36.1345 105.483 33.4407Z" fill="#231F20"/>
<path d="M58.06 33.4093C58.0512 31.375 56.8412 30.0033 55.0507 29.9986C53.2713 29.9936 51.9222 31.4751 51.9179 33.4376C51.9136 35.4389 53.222 36.9327 54.9849 36.9394C56.8509 36.9467 58.0692 35.5477 58.06 33.4093ZM59.6808 33.4741C59.686 36.2014 57.6259 38.3471 54.9942 38.3559C52.4625 38.3641 50.3919 36.1799 50.3836 33.4924C50.3751 30.7676 52.4545 28.5541 55.0199 28.5569C57.5937 28.5596 59.6753 30.7558 59.6808 33.4741Z" fill="#231F20"/>
<path d="M96.4316 33.9844H94.1701H92.0694V36.8673H97.1325V38.2365H90.6067V28.6699H97.059V30.0058H92.0592V32.6816H96.374C96.3935 33.1231 96.4088 33.4673 96.4316 33.9844Z" fill="#231F20"/>
<path d="M79.97 28.6534H81.6401C81.6401 30.1592 81.6153 31.6189 81.6508 33.0771C81.6681 33.7888 81.7089 34.5221 81.897 35.2023C82.2284 36.3991 83.0768 36.9559 84.3098 36.9479C85.5279 36.9402 86.3752 36.3595 86.7149 35.1805C86.8778 34.6154 86.9266 34.0042 86.9378 33.4123C86.9673 31.8608 86.9478 30.3083 86.9478 28.683H88.6702C88.5201 30.9767 88.5489 33.2843 88.1684 35.5227C87.8402 37.4518 86.2924 38.3691 84.2298 38.3656C82.283 38.3619 80.7485 37.3872 80.4355 35.4622C80.0755 33.247 80.1105 30.9682 79.97 28.6534Z" fill="#231F20"/>
<path d="M71.1208 37.0732C71.3677 36.6156 71.5634 36.2531 71.787 35.8389C73.0626 36.6797 74.3747 37.179 75.888 36.9133C76.4731 36.8105 76.9302 36.5964 77.0352 35.9614C77.1491 35.273 76.7345 34.8742 76.1667 34.6651C75.2388 34.3231 74.2834 34.0554 73.3435 33.7452C72.0747 33.3267 71.4896 32.6292 71.4618 31.5252C71.4338 30.421 72.134 29.3443 73.1964 28.9188C74.9979 28.1973 76.655 28.557 78.3123 29.6385C78.0909 30.0265 77.8903 30.3777 77.7692 30.5896C76.671 30.3702 75.6768 30.0971 74.6654 29.9942C73.9424 29.9207 73.282 30.2054 73.1397 31.0659C72.9886 31.979 73.655 32.2627 74.3237 32.4856C75.1765 32.7698 76.0658 32.9504 76.9084 33.2594C78.2613 33.7552 78.7276 34.492 78.6588 35.8404C78.599 37.0119 77.9263 37.8752 76.659 38.1854C74.6894 38.6672 72.8562 38.3085 71.1208 37.0732Z" fill="#231F20"/>
<path d="M48.4512 35.4218C48.8838 35.6774 49.2618 35.9011 49.6315 36.1197C48.8763 37.7591 46.8472 38.6554 44.8689 38.2862C42.8498 37.9092 41.2692 35.9051 41.1484 33.5693C41.0321 31.3221 42.4155 29.3495 44.5344 28.7409C46.5427 28.164 48.4633 28.8857 49.4724 30.6754C49.1324 30.918 48.7802 31.1697 48.433 31.4176C46.7839 29.7383 44.9036 29.5236 43.6746 30.8435C42.2504 32.373 42.3942 34.9907 43.9748 36.3156C45.3389 37.4591 47.1601 37.1232 48.4512 35.4218Z" fill="#231F20"/>
<path d="M105.43 38.287H100.136H98.8223V28.6589H100.263V36.8823H105.43V38.287Z" fill="#231F20"/>
<path d="M114.583 19.1616C114.601 16.42 112.617 14.208 110.106 14.1708C107.645 14.134 105.531 16.3767 105.502 19.0535C105.472 21.7958 107.534 24.0806 110.04 24.0826C112.58 24.0848 114.565 21.9354 114.583 19.1616ZM114.917 19.1375C114.916 21.9892 112.725 24.405 110.115 24.432C107.465 24.4593 105.18 22.0275 105.176 19.1761C105.172 16.2811 107.381 13.8651 110.035 13.8608C112.734 13.8565 114.919 16.2179 114.917 19.1375Z" fill="#231F20"/>
<path d="M53.5689 23.5429V14.0829C53.6372 14.0822 53.7055 14.0817 53.7735 14.0809V24.2134L53.6194 24.3813C50.9396 21.2684 48.4855 17.966 45.6809 14.5928V24.2201C45.5974 24.2194 45.5138 24.2189 45.43 24.2181V14.0749C45.4885 14.0382 45.5468 14.0014 45.6054 13.9646C48.1868 17.1815 50.768 20.3981 53.3495 23.6147C53.4225 23.5907 53.4958 23.567 53.5689 23.5429Z" fill="#231F20"/>
<path d="M86.5743 14.0903C86.5743 15.6659 86.5451 17.2421 86.5866 18.8167C86.6076 19.6175 86.6711 20.4355 86.8638 21.2093C87.3709 23.2474 88.6587 24.1672 90.7263 24.0799C92.6939 23.9966 93.9882 22.9437 94.2779 20.9366C94.4813 19.5269 94.4403 18.081 94.4838 16.6505C94.5098 15.7967 94.4886 14.9416 94.6519 14.0518C94.7072 14.1333 94.812 14.2156 94.8108 14.2964C94.776 16.4454 94.8883 18.6116 94.6499 20.7387C94.2904 23.9426 90.986 25.4498 88.2307 23.7972C87.1452 23.1461 86.5591 22.0816 86.4683 20.9123C86.2954 18.6859 86.3249 16.4441 86.2756 14.2084C86.2746 14.1661 86.3367 14.1221 86.3694 14.0791C86.4377 14.0828 86.506 14.0866 86.5743 14.0903Z" fill="#231F20"/>
<path d="M56.0374 22.7713C57.2633 23.6969 58.6024 24.1865 60.1201 24.1022C60.7138 24.0692 61.3107 23.9586 61.8891 23.8155C62.7691 23.5976 63.2705 23.0067 63.3488 22.1004C63.4431 21.0046 63.1101 20.3502 62.123 19.9489C61.3787 19.6467 60.58 19.4739 59.8004 19.2617C59.2808 19.1204 58.746 19.0341 58.2296 18.8835C56.8047 18.4685 56.2103 17.7182 56.2854 16.4719C56.3597 15.2363 57.2492 14.1869 58.5298 14.0398C59.4687 13.932 60.4481 13.925 61.3775 14.0728C61.9524 14.1641 62.4669 14.6294 62.9315 15.0822C61.7842 14.1746 60.4826 14.043 59.116 14.2064C58.761 14.2489 58.4 14.3217 58.0663 14.4455C57.1472 14.7863 56.6053 15.6176 56.6136 16.606C56.6213 17.5786 57.0241 18.1675 58.0833 18.502C59.0524 18.8082 60.0644 18.9775 61.044 19.254C61.5879 19.4073 62.147 19.5869 62.6258 19.8751C64.1368 20.7847 64.0875 22.9119 62.5663 23.805C60.7923 24.8469 57.8199 24.541 56.3099 23.1538C56.1968 23.0502 56.1273 22.8999 56.0374 22.7713Z" fill="#231F20"/>
<path d="M68.393 24.2376V14.252H64.4779L64.4811 14.0433H72.5297C72.5312 14.1044 72.5325 14.1652 72.534 14.2262H68.6972V24.2358C68.5959 24.2366 68.4943 24.2371 68.393 24.2376Z" fill="#231F20"/>
<path d="M80.4366 14.2389H76.4877C76.4885 14.1791 76.489 14.1196 76.4897 14.0598H84.4738C84.4758 14.1121 84.4775 14.1646 84.4795 14.2169H80.704V24.1945C80.6147 24.1955 80.5257 24.1965 80.4366 24.1975V14.2389Z" fill="#231F20"/>
<path d="M74.4827 24.2069V14.0977C74.5398 14.0972 74.5966 14.0965 74.6533 14.096V24.1979C74.5966 24.2009 74.5398 24.2039 74.4827 24.2069Z" fill="#231F20"/>
<path d="M104.542 14.2015H100.691V24.1658L100.412 24.1666V14.2245H96.469C96.4708 14.1612 96.4728 14.0982 96.4748 14.0349H104.538C104.539 14.0904 104.54 14.146 104.542 14.2015Z" fill="#231F20"/>
<path d="M42.3169 14.0903V24.2563C42.2676 24.2563 42.2183 24.2565 42.1691 24.2568V14.0908C42.2183 14.0906 42.2676 14.0906 42.3169 14.0903Z" fill="#231F20"/>
</svg>
