<svg width="37" height="48" viewBox="0 0 37 48" fill="none" xmlns="http://www.w3.org/2000/svg">
<path d="M17.5269 7.32158C17.1241 6.47803 17.1104 5.8301 17.8239 5.24596C18.0142 5.09011 18.014 4.56576 17.9374 4.25005C17.6407 3.02424 18.6096 2.49464 19.2893 1.89274C19.875 1.37415 20.6565 1.06369 21.3732 0.704456C22.6095 0.0852966 23.8709 -0.359749 25.2275 0.403255C25.3748 0.486061 25.5775 0.522587 25.7476 0.506824C27.2333 0.367733 28.609 0.930355 29.7407 1.66434C31.1424 2.57319 32.2634 3.91183 33.4972 5.0736C33.6236 5.19267 33.6571 5.44084 33.7949 5.51163C34.9267 6.09452 35.2334 7.24178 35.6181 8.27321C36.3123 10.1342 36.5392 12.0062 35.6409 13.9417C35.1931 14.9066 34.9715 15.9178 33.7837 16.265C33.6508 16.304 33.5337 16.5927 33.512 16.7778C33.4067 17.6692 32.8708 18.2105 32.1363 18.6488C31.8969 18.7917 31.5955 19.0964 31.594 19.3288C31.5732 22.5797 30.483 25.5341 29.1546 28.4358C28.1737 30.5777 27.127 32.7006 26.321 34.9083C25.4021 37.4245 25.9375 39.9912 26.5269 42.5104C26.9481 44.3111 27.4109 46.102 27.8805 48C27.6426 47.9537 27.4159 47.9467 27.2203 47.8657C26.0836 47.3951 24.903 46.9986 23.8336 46.4054C21.899 45.3322 19.8492 45.1496 17.722 45.3738C14.3791 45.7262 11.2162 46.7437 8.01736 47.9154C8.35459 47.6293 8.69156 47.3423 9.02953 47.0566C9.39603 46.7467 9.77102 46.4465 10.1288 46.1268C11.2995 45.0811 11.7196 42.8441 10.9563 41.4959C10.8447 41.2993 10.486 41.1725 10.2253 41.1392C8.70857 40.9456 7.18131 40.8283 5.66856 40.6089C4.34318 40.4167 3.73578 39.2187 4.05699 37.4605C2.83143 37.0815 1.66291 36.5784 2.43117 34.9484C1.14307 33.8809 1.14757 33.8481 1.80825 32.5015C1.89156 32.3316 1.8055 32.0022 1.68092 31.8306C1.55284 31.6544 1.2774 31.5876 1.07352 31.4618C-0.137281 30.7151 -0.326908 29.919 0.520152 28.8043C1.09778 28.0438 1.74246 27.3301 2.39564 26.6309C3.12162 25.8536 3.5444 24.9973 3.14064 23.9468C2.29233 21.7379 2.64156 19.5997 3.47661 17.4921C4.39972 15.1625 5.957 13.3573 8.09817 12.0335C9.55113 11.1354 10.9611 10.1685 12.414 9.27062C13.9515 8.32024 15.5581 7.51796 17.5269 7.32158Z" fill="#231F20"/>
</svg>
